<svg xmlns="http://www.w3.org/2000/svg" version="1.1" xmlns:xlink="http://www.w3.org/1999/xlink" xmlns:svgjs="http://svgjs.dev/svgjs" width="1000" height="623" viewBox="0 0 1000 623"><g transform="matrix(1,0,0,1,-0.6060606060606233,0.3253724696356244)"><svg viewBox="0 0 396 247" data-background-color="#ffffff" preserveAspectRatio="xMidYMid meet" height="623" width="1000" xmlns="http://www.w3.org/2000/svg" xmlns:xlink="http://www.w3.org/1999/xlink"><g id="tight-bounds" transform="matrix(1,0,0,1,0.2400000000000091,-0.09999999999999432)"><svg viewBox="0 0 395.52 247.2" height="247.2" width="395.52"><g><svg></svg></g><g><svg viewBox="0 0 395.52 247.2" height="247.2" width="395.52"><mask id="939cb985-8d63-417f-a297-67936f20c4ce"><rect width="395.52" height="247.2" fill="white"></rect><g transform="matrix(1,0,0,1,0,99.6111554612225)" id="clone"><svg viewBox="0 0 395.52 47.977689077555006" height="47.977689077555006" width="395.52"><g><svg viewBox="0 0 395.52 47.977689077555006" height="47.977689077555006" width="395.52"><g><svg viewBox="0 0 395.52 47.977689077555006" height="47.977689077555006" width="395.52"><g><svg viewBox="0 0 395.52 47.977689077555006" height="47.977689077555006" width="395.52"><g id="SvgjsG1062"><svg viewBox="0 0 395.52 47.977689077555006" height="47.977689077555006" width="395.52" id="SvgjsSvg1061"><g><svg viewBox="0 0 395.52 47.977689077555006" height="47.977689077555006" width="395.52"><g transform="matrix(1,0,0,1,0,0)"><svg width="395.52" viewBox="0.6600000858306885 -33.39999961853027 320.760009765625 39.790000915527344" height="47.977689077555006" data-palette-color="#0063db"><path d="M4.15 0L4.15-3.91 10.25-3.91 10.25-26.49 3.66-26.49 3.66-30.4 17.94-30.4 39.31-8.25 39.31-26.49 32.71-26.49 32.71-30.4 51.39-30.4 51.39-26.49 44.8-26.49 44.8 0 39.55 0 15.75-25.2 15.75-3.91 22.34-3.91 22.34 0 4.15 0ZM41.02 1.71L46.56 1.71 46.56-24.78 53.15-24.78 53.15-29.17 54.13-29.17 54.13-23.85 47.53-23.85 47.53 2.64 41.02 2.64 41.02 1.71ZM21.36-29.17L22.66-29.17 38.35-13.35 38.35-11.94 21.36-29.17ZM34.18-23.85L34.18-24.78 38.28-24.78 38.28-23.85 34.18-23.85ZM5.13-23.85L5.13-24.78 9.23-23.85 9.23-23.85 5.13-23.85ZM17.5-5.37L17.5-21.88 18.48-20.8 18.48-5.37 17.5-5.37ZM5.62 1.71L24.1 1.71 24.1-2.54 25.07-2.54 25.07 2.64 5.62 2.64 5.62 1.71ZM59.62-11.33L59.62-11.33Q59.62-13.92 60.57-16.26 61.52-18.6 63.43-20.39 65.33-22.17 68.16-23.23 70.99-24.29 74.73-24.29L74.73-24.29Q78.24-24.29 81-23.35 83.76-22.41 85.69-20.63 87.62-18.85 88.63-16.27 89.65-13.7 89.65-10.4L89.65-10.4 64.96-10.4Q65.18-8.64 66.1-7.28 67.01-5.91 68.43-4.97 69.85-4.03 71.64-3.54 73.44-3.05 75.39-3.05L75.39-3.05Q76.98-3.05 78.62-3.31 80.27-3.56 81.74-4 83.2-4.44 84.35-4.99 85.5-5.54 86.11-6.13L86.11-6.13 87.03-6.13 89.33-3.64Q86.81-1.49 83.21-0.38 79.61 0.73 75.27 0.73L75.27 0.73Q71.48 0.73 68.56-0.2 65.65-1.12 63.66-2.76 61.67-4.39 60.64-6.59 59.62-8.79 59.62-11.33ZM67.31-8.69L91.31-8.69Q91.35-9.06 91.38-9.48 91.4-9.91 91.4-10.4L91.4-10.4Q91.4-12.48 90.98-14.37 90.55-16.26 89.73-17.88 88.91-19.51 87.72-20.85 86.52-22.19 85.01-23.14L85.01-23.14Q86.62-22.51 87.97-21.4 89.33-20.29 90.31-18.7 91.28-17.11 91.83-15.04 92.38-12.96 92.38-10.4L92.38-10.4Q92.38-10.21 92.37-9.91 92.36-9.62 92.33-9.25 92.31-8.89 92.27-8.51 92.23-8.13 92.19-7.76L92.19-7.76 69.11-7.76Q69.58-6.98 70.82-6.16 72.07-5.35 74.05-4.79L74.05-4.79Q72.82-4.79 71.76-5.08 70.7-5.37 69.83-5.88 68.97-6.4 68.32-7.12 67.67-7.84 67.31-8.69L67.31-8.69ZM65.11-13.45L84.01-13.45Q83.62-15.14 82.8-16.46 81.98-17.77 80.78-18.66 79.59-19.56 78.05-20.03 76.51-20.51 74.68-20.51L74.68-20.51Q72.7-20.51 71.08-19.98 69.46-19.46 68.23-18.52 67.01-17.58 66.22-16.28 65.43-14.99 65.11-13.45L65.11-13.45ZM68.45-14.5L67.33-14.5Q68.23-16.5 70.18-17.65 72.12-18.8 74.68-18.8L74.68-18.8Q75.73-18.8 76.72-18.63 77.71-18.46 78.55-18.1 79.39-17.75 80.03-17.24 80.66-16.72 81.03-16.06L81.03-16.06Q79.64-16.99 78.05-17.43 76.46-17.87 74.63-17.87L74.63-17.87Q72.51-17.87 70.9-16.99 69.28-16.11 68.45-14.5L68.45-14.5ZM62.57-1.07L62.57-1.07Q64.94 0.61 68.08 1.54 71.21 2.47 75.27 2.47L75.27 2.47Q79.22 2.47 82.68 1.56 86.13 0.66 88.91-1.2L88.91-1.2 89.57-0.49Q86.42 1.64 82.94 2.51 79.47 3.39 75.66 3.39L75.66 3.39Q70.7 3.39 67.44 2.2 64.18 1 62.57-1.07ZM111.47 0L101.09-19.9 95.92-19.9 95.92-23.56 112.18-23.56 112.18-19.9 107.15-19.9 114.62-4.57 123.21-19.9 118.26-19.9 118.26-23.56 134.52-23.56 134.52-19.9 129.68-19.9 137.91-4.37 145.16-19.9 140.11-19.9 140.11-23.56 155.63-23.56 155.63-19.9 150.46-19.9 140.57 0 134.66 0 126.29-15.89 117.33 0 111.47 0ZM136.37 1.71L141.82 1.71 151.73-18.19 157.39-18.19 157.39-22.19 158.37-22.19 158.37-17.26 152.36-17.26 142.48 2.64 136.74 2.64 136.37 1.71ZM132.81-18.19L136.27-18.19 136.27-22.19 137.25-22.19 137.25-17.26 134.42-17.26 138.72-9.06 138.2-7.98 132.81-18.19ZM115.06-8.08L110.1-18.19 113.94-18.19 113.94-22.19 114.91-22.19 114.91-17.26 111.66-17.26 115.64-9.08 115.06-8.08ZM141.3-17.26L141.3-18.19 143.35-18.19 142.91-17.26 141.3-17.26ZM119.45-17.26L119.45-18.19 121.24-18.19 120.72-17.26 119.45-17.26ZM97.36-17.26L97.36-18.19 100.97-18.19 101.46-17.26 97.36-17.26ZM112.93 1.71L118.53 1.71 126.75-12.87 127.31-11.84 119.14 2.64 113.3 2.64 112.93 1.71ZM162.71 0L162.71-6.71 167.74-6.71Q168.4-5.71 169.62-4.96 170.84-4.2 172.42-3.71 173.99-3.22 175.87-2.98 177.75-2.73 179.73-2.73L179.73-2.73Q181.36-2.73 182.51-2.98 183.66-3.22 184.37-3.66 185.08-4.1 185.39-4.69 185.71-5.27 185.71-5.98L185.71-5.98Q185.71-7.47 183.33-8.53 180.95-9.59 175.8-10.16L175.8-10.16Q172.38-10.52 170.09-11.17 167.79-11.82 166.39-12.74 164.98-13.67 164.38-14.87 163.79-16.06 163.79-17.5L163.79-17.5Q163.79-18.75 164.57-19.97 165.35-21.19 166.95-22.16 168.55-23.12 170.95-23.71 173.36-24.29 176.6-24.29L176.6-24.29Q177.65-24.29 178.75-24.15 179.85-24 180.9-23.72 181.95-23.44 182.9-23.05 183.85-22.66 184.61-22.17L184.61-22.17 184.61-23.54 189.86-23.54 189.86-16.94 184.61-16.94Q184.34-17.7 183.49-18.38 182.63-19.07 181.46-19.58 180.29-20.09 178.97-20.4 177.65-20.7 176.48-20.7L176.48-20.7Q174.94-20.7 173.58-20.48 172.21-20.26 171.21-19.86 170.21-19.46 169.62-18.9 169.04-18.33 169.04-17.65L169.04-17.65Q169.04-17.02 169.49-16.5 169.94-15.99 171-15.55 172.06-15.11 173.83-14.73 175.6-14.36 178.24-14.04L178.24-14.04Q181.76-13.6 184.17-12.92 186.59-12.23 188.1-11.24 189.62-10.25 190.29-8.94 190.96-7.62 190.96-5.91L190.96-5.91Q190.96-4.66 190.2-3.48 189.45-2.29 187.99-1.35 186.54-0.42 184.43 0.16 182.32 0.73 179.58 0.73L179.58 0.73Q177.82 0.73 176.29 0.6 174.75 0.46 173.33 0.15 171.92-0.17 170.6-0.66 169.28-1.15 167.96-1.86L167.96-1.86 167.96 0 162.71 0ZM185.81-14.31L185.81-15.23 191.62-15.23 191.62-22.51 192.6-22.51 192.6-14.31 185.81-14.31ZM170.82-17.65L170.82-17.65Q170.89-17.97 171.4-18.24 171.92-18.51 172.71-18.71 173.5-18.92 174.47-19.04 175.43-19.17 176.41-19.17L176.41-19.17Q177.24-19.17 178.13-19.04 179.02-18.92 179.81-18.7 180.61-18.48 181.25-18.15 181.9-17.82 182.27-17.41L182.27-17.41Q181.71-17.65 180.93-17.81 180.14-17.97 179.33-18.07 178.51-18.16 177.73-18.21 176.95-18.26 176.41-18.26L176.41-18.26Q174.43-18.26 172.98-18.07 171.53-17.87 170.82-17.65ZM164.13-12.82L164.13-12.82Q164.81-11.94 165.76-11.25 166.72-10.57 168.06-10.03 169.4-9.5 171.18-9.12 172.97-8.74 175.29-8.47L175.29-8.47Q177.41-8.23 178.97-7.95 180.53-7.67 181.58-7.32 182.63-6.98 183.22-6.56 183.81-6.13 183.98-5.59L183.98-5.59Q183.46-5.93 182.81-6.19 182.15-6.45 181.12-6.67 180.1-6.88 178.59-7.1 177.09-7.32 174.87-7.59L174.87-7.59Q170.28-8.13 167.62-9.34 164.96-10.55 164.13-12.82ZM163.91 1.71L169.72 1.71 169.72 0.68Q170.4 1 171.45 1.31 172.5 1.61 173.81 1.87 175.11 2.12 176.58 2.28 178.04 2.44 179.56 2.44L179.56 2.44Q182.59 2.44 185.03 1.77 187.47 1.1 189.18-0.04 190.89-1.17 191.8-2.67 192.72-4.17 192.72-5.83L192.72-5.83Q192.72-6.49 192.64-7.06 192.57-7.62 192.39-8.13 192.2-8.64 191.9-9.16 191.59-9.67 191.13-10.23L191.13-10.23Q193.69-8.72 193.69-5.83L193.69-5.83Q193.69-3.88 192.69-2.2 191.69-0.51 189.85 0.72 188.01 1.95 185.39 2.66 182.78 3.37 179.53 3.37L179.53 3.37Q178.34 3.37 177.12 3.26 175.9 3.15 174.75 2.95 173.6 2.76 172.58 2.49 171.55 2.22 170.74 1.88L170.74 1.88 170.74 2.69 163.91 2.69 163.91 1.71ZM200.58 0L200.58-3.91 206.95-3.91 206.95-26.49 200.21-26.49 200.21-30.4 217.74-30.4Q220.33-30.4 222.37-30.35 224.4-30.3 225.95-30.22 227.5-30.15 228.65-30.03 229.8-29.91 230.63-29.76L230.63-29.76Q232.63-29.39 234.04-28.71 235.44-28.03 236.32-27.08 237.2-26.12 237.6-24.94 238-23.75 238-22.39L238-22.39Q238-21.41 237.59-20.4 237.17-19.38 236.31-18.47 235.44-17.55 234.13-16.8 232.83-16.04 231.07-15.58L231.07-15.58Q232.85-15.36 234.26-14.71 235.66-14.06 236.62-13.12 237.59-12.18 238.09-11.01 238.59-9.84 238.59-8.57L238.59-8.57Q238.59-7.08 238.17-5.82 237.76-4.57 236.82-3.56 235.88-2.56 234.37-1.84 232.85-1.12 230.65-0.71L230.65-0.71Q228.29-0.27 225.22-0.13 222.16 0 218.15 0L218.15 0 200.58 0ZM202.14 1.71L218.15 1.71Q222.04 1.71 225.3 1.62 228.55 1.54 231 1.05L231 1.05Q233.73 0.51 235.54-0.5 237.34-1.51 238.41-2.81 239.47-4.1 239.89-5.62 240.32-7.13 240.32-8.67L240.32-8.67Q240.32-9.74 240-10.78 239.69-11.82 239.03-12.72 238.37-13.62 237.34-14.37 236.32-15.11 234.9-15.6L234.9-15.6Q237.42-16.85 238.59-18.54 239.76-20.24 239.76-22.39L239.76-22.39Q239.76-24.51 238.61-26.43 237.47-28.34 234.85-29.66L234.85-29.66Q236.32-29.3 237.42-28.6 238.52-27.91 239.26-26.98 240-26.05 240.37-24.93 240.74-23.8 240.74-22.58L240.74-22.58Q240.74-20.36 239.83-18.71 238.93-17.07 236.93-15.65L236.93-15.65Q239.27-14.4 240.29-12.61 241.3-10.82 241.3-8.67L241.3-8.67Q241.3-6.76 240.76-5.07 240.22-3.37 239.02-1.99 237.81-0.61 235.89 0.4 233.97 1.42 231.19 1.95L231.19 1.95Q228.73 2.44 225.54 2.54 222.35 2.64 218.15 2.64L218.15 2.64 202.14 2.64 202.14 1.71ZM212.51-16.97L221.57-16.97Q224.57-16.97 226.54-17.26 228.51-17.55 229.68-18.18 230.85-18.8 231.33-19.74 231.8-20.68 231.8-22L231.8-22Q231.8-23.32 230.97-24.37 230.14-25.42 228.31-25.98L228.31-25.98Q227.07-26.34 225.43-26.42 223.79-26.49 221.57-26.49L221.57-26.49 212.51-26.49 212.51-16.97ZM214.27-18.43L214.27-24.78 221.57-24.78Q223.43-24.78 224.77-24.69 226.11-24.61 227.07-24.39 228.02-24.17 228.68-23.82 229.34-23.46 229.85-22.92L229.85-22.92Q229.36-23.14 228.69-23.32 228.02-23.49 227.04-23.61 226.06-23.73 224.73-23.79 223.4-23.85 221.57-23.85L221.57-23.85 215.25-23.85 215.25-18.43 214.27-18.43ZM201.67-23.8L201.67-24.78 205.92-24.78 205.92-23.8 201.67-23.8ZM212.51-3.91L222.04-3.91Q224.55-3.91 226.36-4.04 228.16-4.17 229.48-4.66L229.48-4.66Q230.31-4.98 230.86-5.42 231.41-5.86 231.73-6.38 232.05-6.91 232.17-7.52 232.29-8.13 232.29-8.79L232.29-8.79Q232.29-10.4 231.3-11.58 230.31-12.77 228.24-13.38L228.24-13.38Q226.97-13.75 225.33-13.83 223.7-13.92 221.62-13.92L221.62-13.92 212.51-13.92 212.51-3.91ZM214.27-5.37L214.27-12.21 221.57-12.21Q223.43-12.21 224.84-12.08 226.26-11.96 227.3-11.71 228.33-11.45 229.07-11.07 229.8-10.69 230.31-10.16L230.31-10.16Q229.68-10.45 228.96-10.66 228.24-10.86 227.24-11.01 226.24-11.16 224.87-11.22 223.5-11.28 221.57-11.28L221.57-11.28 215.25-11.28 215.25-5.37 214.27-5.37ZM247.18-11.69L247.18-11.69Q247.18-13.96 248.13-16.21 249.08-18.46 250.95-20.25 252.82-22.05 255.58-23.17 258.34-24.29 261.93-24.29L261.93-24.29Q263.07-24.29 264.38-24.12 265.69-23.95 266.99-23.56 268.3-23.17 269.54-22.52 270.79-21.88 271.81-20.95L271.81-20.95 271.81-23.56 282.31-23.56 282.31-19.41 276.94-19.41 276.94-3.66 282.31-3.66 282.31 0 271.81 0 271.81-3.17Q270.86-2.22 269.65-1.49 268.44-0.76 267.09-0.27 265.73 0.22 264.28 0.48 262.83 0.73 261.39 0.73L261.39 0.73Q257.87 0.73 255.21-0.27 252.55-1.27 250.77-2.97 248.99-4.66 248.08-6.92 247.18-9.18 247.18-11.69ZM278.7-5.13L278.7-17.7 284.07-17.7 284.07-21.7 285.05-21.7 285.05-16.77 279.68-16.77 279.68-5.13 278.7-5.13ZM252.48-11.89L252.48-11.89Q252.48-9.86 253.2-8.23 253.92-6.59 255.16-5.44 256.41-4.3 258.12-3.66 259.83-3.03 261.8-3.03L261.8-3.03Q262.95-3.03 264.14-3.26 265.32-3.49 266.43-3.97 267.54-4.44 268.53-5.16 269.52-5.88 270.24-6.87 270.96-7.86 271.39-9.13 271.81-10.4 271.81-11.96L271.81-11.96Q271.81-13.7 271.01-15.25 270.2-16.8 268.85-17.97 267.49-19.14 265.69-19.82 263.88-20.51 261.88-20.51L261.88-20.51Q259.88-20.51 258.15-19.9 256.43-19.29 255.18-18.16 253.92-17.04 253.2-15.44 252.48-13.84 252.48-11.89ZM254.16-11.77L254.16-11.77Q254.16-13.31 254.74-14.59 255.31-15.87 256.34-16.81 257.36-17.75 258.78-18.27 260.19-18.8 261.88-18.8L261.88-18.8Q263.15-18.8 264.17-18.52 265.2-18.24 265.95-17.83 266.71-17.43 267.2-17 267.69-16.58 267.88-16.26L267.88-16.26Q266.56-16.99 265.17-17.43 263.78-17.87 261.88-17.87L261.88-17.87Q260.34-17.87 259.11-17.37 257.87-16.87 256.99-16.02 256.12-15.16 255.64-14.04 255.16-12.92 255.16-11.67L255.16-11.67Q255.16-10.5 255.43-9.47 255.7-8.45 256.3-7.58 256.9-6.71 257.86-5.99 258.83-5.27 260.19-4.74L260.19-4.74Q258.65-5 257.52-5.65 256.38-6.3 255.64-7.23 254.89-8.15 254.53-9.31 254.16-10.47 254.16-11.77ZM273.28 1.71L284.07 1.71 284.07-2.29 285.05-2.29 285.05 2.64 273.28 2.64 273.28 1.71ZM250.33-1.05L250.33-1.05Q251.33-0.24 252.6 0.4 253.87 1.05 255.31 1.5 256.75 1.95 258.3 2.2 259.85 2.44 261.41 2.44L261.41 2.44Q264.12 2.44 266.48 1.77 268.84 1.1 270.67-0.1L270.67-0.1 270.67 1.03Q268.84 2.12 266.43 2.75 264.03 3.37 261.44 3.37L261.44 3.37Q259.66 3.37 257.95 3.09 256.24 2.81 254.77 2.25 253.31 1.68 252.16 0.85 251.01 0.02 250.33-1.05ZM291.64 0L291.64-3.66 297.01-3.66 297.01-19.41 291.64-19.41 291.64-23.56 302.26-23.56 302.26-19.48Q303.01-20.46 304.07-21.34 305.14-22.22 306.48-22.88 307.82-23.54 309.41-23.91 311-24.29 312.8-24.29L312.8-24.29Q313.34-24.29 314.15-24.26 314.95-24.22 315.68-24.1L315.68-24.1 315.68-19.31Q314.83-19.51 314-19.58 313.17-19.65 312.39-19.65L312.39-19.65Q310.43-19.65 308.69-19.03 306.94-18.41 305.58-17.22 304.21-16.04 303.33-14.33 302.45-12.62 302.26-10.42L302.26-10.42 302.26-3.66 311.04-3.66 311.04 0 291.64 0ZM303.96-5.13L303.96-8.23Q303.96-10.52 304.55-12.33 305.14-14.14 306.22-15.38 307.31-16.63 308.87-17.29 310.43-17.94 312.39-17.94L312.39-17.94Q312.8-17.94 313.44-17.88 314.07-17.82 314.77-17.7 315.46-17.58 316.17-17.4 316.88-17.21 317.44-16.97L317.44-16.97 317.44-22.73 318.42-22.73 318.42-15.75Q317.73-16.04 316.94-16.27 316.15-16.5 315.33-16.67 314.51-16.85 313.75-16.93 313-17.02 312.39-17.02L312.39-17.02Q310.61-17.02 309.23-16.43 307.85-15.84 306.89-14.75 305.94-13.65 305.44-12.06 304.94-10.47 304.94-8.47L304.94-8.47 304.94-5.13 303.96-5.13ZM293.1-16.77L293.1-17.7 295.98-17.7 295.98-16.77 293.1-16.77ZM293.1 1.71L312.8 1.71 312.8-2.29 313.78-2.29 313.78 2.64 293.1 2.64 293.1 1.71Z" opacity="1" transform="matrix(1,0,0,1,0,0)" fill="black" class="wordmark-text-0" id="SvgjsPath1060" stroke-width="5" stroke="black" stroke-linejoin="round"></path></svg></g></svg></g></svg></g></svg></g><g></g></svg></g></svg></g></svg></g></mask><g mask="url(#939cb985-8d63-417f-a297-67936f20c4ce)"><g><path xmlns="http://www.w3.org/2000/svg" d="M12.578 227.472v-29.261h45.65v-168.979h-49.317v-29.261h106.866l159.925 165.762v-136.501h-49.392v-29.261h139.794v29.261h-49.317v198.24h-39.289l-178.11-188.586v159.326h49.317v29.26zM288.499 240.269h41.459v-198.24h49.317v-32.853h7.334v39.813h-49.392v198.24h-48.718zM141.371 9.176h9.729l117.417 118.39v10.552zM237.311 48.989v-6.96h30.683v6.96zM19.912 48.989v-6.96l30.683 6.96v0zM112.484 187.285v-123.554l7.334 8.082v115.472zM23.579 240.269h138.297v-31.805h7.259v38.765h-145.556z" fill="#0063db" fill-rule="nonzero" stroke="none" stroke-width="1" stroke-linecap="butt" stroke-linejoin="miter" stroke-miterlimit="10" stroke-dasharray="" stroke-dashoffset="0" font-family="none" font-weight="none" font-size="none" text-anchor="none" style="mix-blend-mode: normal" data-fill-palette-color="tertiary"></path></g></g><g transform="matrix(1,0,0,1,0,99.6111554612225)"><svg viewBox="0 0 395.52 47.977689077555006" height="47.977689077555006" width="395.52"><g><svg viewBox="0 0 395.52 47.977689077555006" height="47.977689077555006" width="395.52"><g><svg viewBox="0 0 395.52 47.977689077555006" height="47.977689077555006" width="395.52"><g><svg viewBox="0 0 395.52 47.977689077555006" height="47.977689077555006" width="395.52"><g id="textblocktransform"><svg viewBox="0 0 395.52 47.977689077555006" height="47.977689077555006" width="395.52" id="textblock"><g><svg viewBox="0 0 395.52 47.977689077555006" height="47.977689077555006" width="395.52"><g transform="matrix(1,0,0,1,0,0)"><svg width="395.52" viewBox="0.6600000858306885 -33.39999961853027 320.760009765625 39.790000915527344" height="47.977689077555006" data-palette-color="#0063db"><path d="M4.15 0L4.15-3.91 10.25-3.91 10.25-26.49 3.66-26.49 3.66-30.4 17.94-30.4 39.31-8.25 39.31-26.49 32.71-26.49 32.71-30.4 51.39-30.4 51.39-26.49 44.8-26.49 44.8 0 39.55 0 15.75-25.2 15.75-3.91 22.34-3.91 22.34 0 4.15 0ZM41.02 1.71L46.56 1.71 46.56-24.78 53.15-24.78 53.15-29.17 54.13-29.17 54.13-23.85 47.53-23.85 47.53 2.64 41.02 2.64 41.02 1.71ZM21.36-29.17L22.66-29.17 38.35-13.35 38.35-11.94 21.36-29.17ZM34.18-23.85L34.18-24.78 38.28-24.78 38.28-23.85 34.18-23.85ZM5.13-23.85L5.13-24.78 9.23-23.85 9.23-23.85 5.13-23.85ZM17.5-5.37L17.5-21.88 18.48-20.8 18.48-5.37 17.5-5.37ZM5.62 1.71L24.1 1.71 24.1-2.54 25.07-2.54 25.07 2.64 5.62 2.64 5.62 1.71ZM59.62-11.33L59.62-11.33Q59.62-13.92 60.57-16.26 61.52-18.6 63.43-20.39 65.33-22.17 68.16-23.23 70.99-24.29 74.73-24.29L74.73-24.29Q78.24-24.29 81-23.35 83.76-22.41 85.69-20.63 87.62-18.85 88.63-16.27 89.65-13.7 89.65-10.4L89.65-10.4 64.96-10.4Q65.18-8.64 66.1-7.28 67.01-5.91 68.43-4.97 69.85-4.03 71.64-3.54 73.44-3.05 75.39-3.05L75.39-3.05Q76.98-3.05 78.62-3.31 80.27-3.56 81.74-4 83.2-4.44 84.35-4.99 85.5-5.54 86.11-6.13L86.11-6.13 87.03-6.13 89.33-3.64Q86.81-1.49 83.21-0.38 79.61 0.73 75.27 0.73L75.27 0.73Q71.48 0.73 68.56-0.2 65.65-1.12 63.66-2.76 61.67-4.39 60.64-6.59 59.62-8.79 59.62-11.33ZM67.31-8.69L91.31-8.69Q91.35-9.06 91.38-9.48 91.4-9.91 91.4-10.4L91.4-10.4Q91.4-12.48 90.98-14.37 90.55-16.26 89.73-17.88 88.91-19.51 87.72-20.85 86.52-22.19 85.01-23.14L85.01-23.14Q86.62-22.51 87.97-21.4 89.33-20.29 90.31-18.7 91.28-17.11 91.83-15.04 92.38-12.96 92.38-10.4L92.38-10.4Q92.38-10.21 92.37-9.91 92.36-9.62 92.33-9.25 92.31-8.89 92.27-8.51 92.23-8.13 92.19-7.76L92.19-7.76 69.11-7.76Q69.58-6.98 70.82-6.16 72.07-5.35 74.05-4.79L74.05-4.79Q72.82-4.79 71.76-5.08 70.7-5.37 69.83-5.88 68.97-6.4 68.32-7.12 67.67-7.84 67.31-8.69L67.31-8.69ZM65.11-13.45L84.01-13.45Q83.62-15.14 82.8-16.46 81.98-17.77 80.78-18.66 79.59-19.56 78.05-20.03 76.51-20.51 74.68-20.51L74.68-20.51Q72.7-20.51 71.08-19.98 69.46-19.46 68.23-18.52 67.01-17.58 66.22-16.28 65.43-14.99 65.11-13.45L65.11-13.45ZM68.45-14.5L67.33-14.5Q68.23-16.5 70.18-17.65 72.12-18.8 74.68-18.8L74.68-18.8Q75.73-18.8 76.72-18.63 77.71-18.46 78.55-18.1 79.39-17.75 80.03-17.24 80.66-16.72 81.03-16.06L81.03-16.06Q79.64-16.99 78.05-17.43 76.46-17.87 74.63-17.87L74.63-17.87Q72.51-17.87 70.9-16.99 69.28-16.11 68.45-14.5L68.45-14.5ZM62.57-1.07L62.57-1.07Q64.94 0.61 68.08 1.54 71.21 2.47 75.27 2.47L75.27 2.47Q79.22 2.47 82.68 1.56 86.13 0.66 88.91-1.2L88.91-1.2 89.57-0.49Q86.42 1.64 82.94 2.51 79.47 3.39 75.66 3.39L75.66 3.39Q70.7 3.39 67.44 2.2 64.18 1 62.57-1.07ZM111.47 0L101.09-19.9 95.92-19.9 95.92-23.56 112.18-23.56 112.18-19.9 107.15-19.9 114.62-4.57 123.21-19.9 118.26-19.9 118.26-23.56 134.52-23.56 134.52-19.9 129.68-19.9 137.91-4.37 145.16-19.9 140.11-19.9 140.11-23.56 155.63-23.56 155.63-19.9 150.46-19.9 140.57 0 134.66 0 126.29-15.89 117.33 0 111.47 0ZM136.37 1.71L141.82 1.71 151.73-18.19 157.39-18.19 157.39-22.19 158.37-22.19 158.37-17.26 152.36-17.26 142.48 2.64 136.74 2.64 136.37 1.71ZM132.81-18.19L136.27-18.19 136.27-22.19 137.25-22.19 137.25-17.26 134.42-17.26 138.72-9.06 138.2-7.98 132.81-18.19ZM115.06-8.08L110.1-18.19 113.94-18.19 113.94-22.19 114.91-22.19 114.91-17.26 111.66-17.26 115.64-9.08 115.06-8.08ZM141.3-17.26L141.3-18.19 143.35-18.19 142.91-17.26 141.3-17.26ZM119.45-17.26L119.45-18.19 121.24-18.19 120.72-17.26 119.45-17.26ZM97.36-17.26L97.36-18.19 100.97-18.19 101.46-17.26 97.36-17.26ZM112.93 1.71L118.53 1.71 126.75-12.87 127.31-11.84 119.14 2.64 113.3 2.64 112.93 1.71ZM162.71 0L162.71-6.71 167.74-6.71Q168.4-5.71 169.62-4.96 170.84-4.2 172.42-3.71 173.99-3.22 175.87-2.98 177.75-2.73 179.73-2.73L179.73-2.73Q181.36-2.73 182.51-2.98 183.66-3.22 184.37-3.66 185.08-4.1 185.39-4.69 185.71-5.27 185.71-5.98L185.71-5.98Q185.71-7.47 183.33-8.53 180.95-9.59 175.8-10.16L175.8-10.16Q172.38-10.52 170.09-11.17 167.79-11.82 166.39-12.74 164.98-13.67 164.38-14.87 163.79-16.06 163.79-17.5L163.79-17.5Q163.79-18.75 164.57-19.97 165.35-21.19 166.95-22.16 168.55-23.12 170.95-23.71 173.36-24.29 176.6-24.29L176.6-24.29Q177.65-24.29 178.75-24.15 179.85-24 180.9-23.72 181.95-23.44 182.9-23.05 183.85-22.66 184.61-22.17L184.61-22.17 184.61-23.54 189.86-23.54 189.86-16.94 184.61-16.94Q184.34-17.7 183.49-18.38 182.63-19.07 181.46-19.58 180.29-20.09 178.97-20.4 177.65-20.7 176.48-20.7L176.48-20.7Q174.94-20.7 173.58-20.48 172.21-20.26 171.21-19.86 170.21-19.46 169.62-18.9 169.04-18.33 169.04-17.65L169.04-17.65Q169.04-17.02 169.49-16.5 169.94-15.99 171-15.55 172.06-15.11 173.83-14.73 175.6-14.36 178.24-14.04L178.24-14.04Q181.76-13.6 184.17-12.92 186.59-12.23 188.1-11.24 189.62-10.25 190.29-8.94 190.96-7.62 190.96-5.91L190.96-5.91Q190.96-4.66 190.2-3.48 189.45-2.29 187.99-1.35 186.54-0.42 184.43 0.16 182.32 0.73 179.58 0.73L179.58 0.73Q177.82 0.73 176.29 0.6 174.75 0.46 173.33 0.15 171.92-0.17 170.6-0.66 169.28-1.15 167.96-1.86L167.96-1.86 167.96 0 162.71 0ZM185.81-14.31L185.81-15.23 191.62-15.23 191.62-22.51 192.6-22.51 192.6-14.31 185.81-14.31ZM170.82-17.65L170.82-17.65Q170.89-17.97 171.4-18.24 171.92-18.51 172.71-18.71 173.5-18.92 174.47-19.04 175.43-19.17 176.41-19.17L176.41-19.17Q177.24-19.17 178.13-19.04 179.02-18.92 179.81-18.7 180.61-18.48 181.25-18.15 181.9-17.82 182.27-17.41L182.27-17.41Q181.71-17.65 180.93-17.81 180.14-17.97 179.33-18.07 178.51-18.16 177.73-18.21 176.95-18.26 176.41-18.26L176.41-18.26Q174.43-18.26 172.98-18.07 171.53-17.87 170.82-17.65ZM164.13-12.82L164.13-12.82Q164.81-11.94 165.76-11.25 166.72-10.57 168.06-10.03 169.4-9.5 171.18-9.12 172.97-8.74 175.29-8.47L175.29-8.47Q177.41-8.23 178.97-7.95 180.53-7.67 181.58-7.32 182.63-6.98 183.22-6.56 183.81-6.13 183.98-5.59L183.98-5.59Q183.46-5.93 182.81-6.19 182.15-6.45 181.12-6.67 180.1-6.88 178.59-7.1 177.09-7.32 174.87-7.59L174.87-7.59Q170.28-8.13 167.62-9.34 164.96-10.55 164.13-12.82ZM163.91 1.71L169.72 1.71 169.72 0.68Q170.4 1 171.45 1.31 172.5 1.61 173.81 1.87 175.11 2.12 176.58 2.28 178.04 2.44 179.56 2.44L179.56 2.44Q182.59 2.44 185.03 1.77 187.47 1.1 189.18-0.04 190.89-1.17 191.8-2.67 192.72-4.17 192.72-5.83L192.72-5.83Q192.72-6.49 192.64-7.06 192.57-7.62 192.39-8.13 192.2-8.64 191.9-9.16 191.59-9.67 191.13-10.23L191.13-10.23Q193.69-8.72 193.69-5.83L193.69-5.83Q193.69-3.88 192.69-2.2 191.69-0.51 189.85 0.72 188.01 1.95 185.39 2.66 182.78 3.37 179.53 3.37L179.53 3.37Q178.34 3.37 177.12 3.26 175.9 3.15 174.75 2.95 173.6 2.76 172.58 2.49 171.55 2.22 170.74 1.88L170.74 1.88 170.74 2.69 163.91 2.69 163.91 1.71ZM200.58 0L200.58-3.91 206.95-3.91 206.95-26.49 200.21-26.49 200.21-30.4 217.74-30.4Q220.33-30.4 222.37-30.35 224.4-30.3 225.95-30.22 227.5-30.15 228.65-30.03 229.8-29.91 230.63-29.76L230.63-29.76Q232.63-29.39 234.04-28.71 235.44-28.03 236.32-27.08 237.2-26.12 237.6-24.94 238-23.75 238-22.39L238-22.39Q238-21.41 237.59-20.4 237.17-19.38 236.31-18.47 235.44-17.55 234.13-16.8 232.83-16.04 231.07-15.58L231.07-15.58Q232.85-15.36 234.26-14.71 235.66-14.06 236.62-13.12 237.59-12.18 238.09-11.01 238.59-9.84 238.59-8.57L238.59-8.57Q238.59-7.08 238.17-5.82 237.76-4.57 236.82-3.56 235.88-2.56 234.37-1.84 232.85-1.12 230.65-0.71L230.65-0.71Q228.29-0.27 225.22-0.13 222.16 0 218.15 0L218.15 0 200.58 0ZM202.14 1.71L218.15 1.71Q222.04 1.71 225.3 1.62 228.55 1.54 231 1.05L231 1.05Q233.73 0.51 235.54-0.5 237.34-1.51 238.41-2.81 239.47-4.1 239.89-5.62 240.32-7.13 240.32-8.67L240.32-8.67Q240.32-9.74 240-10.78 239.69-11.82 239.03-12.72 238.37-13.62 237.34-14.37 236.32-15.11 234.9-15.6L234.9-15.6Q237.42-16.85 238.59-18.54 239.76-20.24 239.76-22.39L239.76-22.39Q239.76-24.51 238.61-26.43 237.47-28.34 234.85-29.66L234.85-29.66Q236.32-29.3 237.42-28.6 238.52-27.91 239.26-26.98 240-26.05 240.37-24.93 240.74-23.8 240.74-22.58L240.74-22.58Q240.74-20.36 239.83-18.71 238.93-17.07 236.93-15.65L236.93-15.65Q239.27-14.4 240.29-12.61 241.3-10.82 241.3-8.67L241.3-8.67Q241.3-6.76 240.76-5.07 240.22-3.37 239.02-1.99 237.81-0.61 235.89 0.4 233.97 1.42 231.19 1.95L231.19 1.95Q228.73 2.44 225.54 2.54 222.35 2.64 218.15 2.64L218.15 2.64 202.14 2.64 202.14 1.71ZM212.51-16.97L221.57-16.97Q224.57-16.97 226.54-17.26 228.51-17.55 229.68-18.18 230.85-18.8 231.33-19.74 231.8-20.68 231.8-22L231.8-22Q231.8-23.32 230.97-24.37 230.14-25.42 228.31-25.98L228.31-25.98Q227.07-26.34 225.43-26.42 223.79-26.49 221.57-26.49L221.57-26.49 212.51-26.49 212.51-16.97ZM214.27-18.43L214.27-24.78 221.57-24.78Q223.43-24.78 224.77-24.69 226.11-24.61 227.07-24.39 228.02-24.17 228.68-23.82 229.34-23.46 229.85-22.92L229.85-22.92Q229.36-23.14 228.69-23.32 228.02-23.49 227.04-23.61 226.06-23.73 224.73-23.79 223.4-23.85 221.57-23.85L221.57-23.85 215.25-23.85 215.25-18.43 214.27-18.43ZM201.67-23.8L201.67-24.78 205.92-24.78 205.92-23.8 201.67-23.8ZM212.51-3.91L222.04-3.91Q224.55-3.91 226.36-4.04 228.16-4.17 229.48-4.66L229.48-4.66Q230.31-4.98 230.86-5.42 231.41-5.86 231.73-6.38 232.05-6.91 232.17-7.52 232.29-8.13 232.29-8.79L232.29-8.79Q232.29-10.4 231.3-11.58 230.31-12.77 228.24-13.38L228.24-13.38Q226.97-13.75 225.33-13.83 223.7-13.92 221.62-13.92L221.62-13.92 212.51-13.92 212.51-3.91ZM214.27-5.37L214.27-12.21 221.57-12.21Q223.43-12.21 224.84-12.08 226.26-11.96 227.3-11.71 228.33-11.45 229.07-11.07 229.8-10.69 230.31-10.16L230.31-10.16Q229.68-10.45 228.96-10.66 228.24-10.86 227.24-11.01 226.24-11.16 224.87-11.22 223.5-11.28 221.57-11.28L221.57-11.28 215.25-11.28 215.25-5.37 214.27-5.37ZM247.18-11.69L247.18-11.69Q247.18-13.96 248.13-16.21 249.08-18.46 250.95-20.25 252.82-22.05 255.58-23.17 258.34-24.29 261.93-24.29L261.93-24.29Q263.07-24.29 264.38-24.12 265.69-23.95 266.99-23.56 268.3-23.17 269.54-22.52 270.79-21.88 271.81-20.95L271.81-20.95 271.81-23.56 282.31-23.56 282.31-19.41 276.94-19.41 276.94-3.66 282.31-3.66 282.31 0 271.81 0 271.81-3.17Q270.86-2.22 269.65-1.49 268.44-0.76 267.09-0.27 265.73 0.22 264.28 0.48 262.83 0.73 261.39 0.73L261.39 0.73Q257.87 0.73 255.21-0.27 252.55-1.27 250.77-2.97 248.99-4.66 248.08-6.92 247.18-9.18 247.18-11.69ZM278.7-5.13L278.7-17.7 284.07-17.7 284.07-21.7 285.05-21.7 285.05-16.77 279.68-16.77 279.68-5.13 278.7-5.13ZM252.48-11.89L252.48-11.89Q252.48-9.86 253.2-8.23 253.92-6.59 255.16-5.44 256.41-4.3 258.12-3.66 259.83-3.03 261.8-3.03L261.8-3.03Q262.95-3.03 264.14-3.26 265.32-3.49 266.43-3.97 267.54-4.44 268.53-5.16 269.52-5.88 270.24-6.87 270.96-7.86 271.39-9.13 271.81-10.4 271.81-11.96L271.81-11.96Q271.81-13.7 271.01-15.25 270.2-16.8 268.85-17.97 267.49-19.14 265.69-19.82 263.88-20.51 261.88-20.51L261.88-20.51Q259.88-20.51 258.15-19.9 256.43-19.29 255.18-18.16 253.92-17.04 253.2-15.44 252.48-13.84 252.48-11.89ZM254.16-11.77L254.16-11.77Q254.16-13.31 254.74-14.59 255.31-15.87 256.34-16.81 257.36-17.75 258.78-18.27 260.19-18.8 261.88-18.8L261.88-18.8Q263.15-18.8 264.17-18.52 265.2-18.24 265.95-17.83 266.71-17.43 267.2-17 267.69-16.58 267.88-16.26L267.88-16.26Q266.56-16.99 265.17-17.43 263.78-17.87 261.88-17.87L261.88-17.87Q260.34-17.87 259.11-17.37 257.87-16.87 256.99-16.02 256.12-15.16 255.64-14.04 255.16-12.92 255.16-11.67L255.16-11.67Q255.16-10.5 255.43-9.47 255.7-8.45 256.3-7.58 256.9-6.71 257.86-5.99 258.83-5.27 260.19-4.74L260.19-4.74Q258.65-5 257.52-5.65 256.38-6.3 255.64-7.23 254.89-8.15 254.53-9.31 254.16-10.47 254.16-11.77ZM273.28 1.71L284.07 1.71 284.07-2.29 285.05-2.29 285.05 2.64 273.28 2.64 273.28 1.71ZM250.33-1.05L250.33-1.05Q251.33-0.24 252.6 0.4 253.87 1.05 255.31 1.5 256.75 1.95 258.3 2.2 259.85 2.44 261.41 2.44L261.41 2.44Q264.12 2.44 266.48 1.77 268.84 1.1 270.67-0.1L270.67-0.1 270.67 1.03Q268.84 2.12 266.43 2.75 264.03 3.37 261.44 3.37L261.44 3.37Q259.66 3.37 257.95 3.09 256.24 2.81 254.77 2.25 253.31 1.68 252.16 0.85 251.01 0.02 250.33-1.05ZM291.64 0L291.64-3.66 297.01-3.66 297.01-19.41 291.64-19.41 291.64-23.56 302.26-23.56 302.26-19.48Q303.01-20.46 304.07-21.34 305.14-22.22 306.48-22.88 307.82-23.54 309.41-23.91 311-24.29 312.8-24.29L312.8-24.29Q313.34-24.29 314.15-24.26 314.95-24.22 315.68-24.1L315.68-24.1 315.68-19.31Q314.83-19.51 314-19.58 313.17-19.65 312.39-19.65L312.39-19.65Q310.43-19.65 308.69-19.03 306.94-18.41 305.58-17.22 304.21-16.04 303.33-14.33 302.45-12.62 302.26-10.42L302.26-10.42 302.26-3.66 311.04-3.66 311.04 0 291.64 0ZM303.96-5.13L303.96-8.23Q303.96-10.52 304.55-12.33 305.14-14.14 306.22-15.38 307.31-16.63 308.87-17.29 310.43-17.94 312.39-17.94L312.39-17.94Q312.8-17.94 313.44-17.88 314.07-17.82 314.77-17.7 315.46-17.58 316.17-17.4 316.88-17.21 317.44-16.97L317.44-16.97 317.44-22.73 318.42-22.73 318.42-15.75Q317.73-16.04 316.94-16.27 316.15-16.5 315.33-16.67 314.51-16.85 313.75-16.93 313-17.02 312.39-17.02L312.39-17.02Q310.61-17.02 309.23-16.43 307.85-15.84 306.89-14.75 305.94-13.65 305.44-12.06 304.94-10.47 304.94-8.47L304.94-8.47 304.94-5.13 303.96-5.13ZM293.1-16.77L293.1-17.7 295.98-17.7 295.98-16.77 293.1-16.77ZM293.1 1.71L312.8 1.71 312.8-2.29 313.78-2.29 313.78 2.64 293.1 2.64 293.1 1.71Z" opacity="1" transform="matrix(1,0,0,1,0,0)" fill="#0063db" class="wordmark-text-0" data-fill-palette-color="primary" id="text-0"></path></svg></g></svg></g></svg></g></svg></g><g></g></svg></g></svg></g></svg></g></svg></g><defs></defs></svg><rect width="395.52" height="247.2" fill="none" stroke="none" visibility="hidden"></rect></g></svg></g></svg>